<svg width="25" height="24" viewBox="0 0 25 24" fill="none" xmlns="http://www.w3.org/2000/svg">
    <g clip-path="url(#clip0_395_117)">
        <path
            d="M13.984 12H15.5V19H0.5V15C0.5 13.343 1.843 12 3.5 12H11.433L4.5 3.243V6.5C4.5 7.878 3.378 9 2 9H0.5V7H2C2.276 7 2.5 6.776 2.5 6.5V0H4.484L13.984 12ZM3.558 21C3.524 21.162 3.5 21.328 3.5 21.5C3.5 22.881 4.619 24 6 24C7.381 24 8.5 22.881 8.5 21.5C8.5 21.328 8.476 21.162 8.442 21H3.558ZM17.558 21C17.524 21.162 17.5 21.328 17.5 21.5C17.5 22.881 18.619 24 20 24C21.381 24 22.5 22.881 22.5 21.5C22.5 21.328 22.476 21.162 22.442 21H17.557H17.558ZM17.5 19H24.5V14H17.5V19ZM19.5 6H17.5V12H24.5V11C24.5 8.243 22.257 6 19.5 6Z"
            fill="black" />
        <path
            d="M13.984 12H15.5V19H0.5V15C0.5 13.343 1.843 12 3.5 12H11.433L4.5 3.243V6.5C4.5 7.878 3.378 9 2 9H0.5V7H2C2.276 7 2.5 6.776 2.5 6.5V0H4.484L13.984 12ZM3.558 21C3.524 21.162 3.5 21.328 3.5 21.5C3.5 22.881 4.619 24 6 24C7.381 24 8.5 22.881 8.5 21.5C8.5 21.328 8.476 21.162 8.442 21H3.558ZM17.558 21C17.524 21.162 17.5 21.328 17.5 21.5C17.5 22.881 18.619 24 20 24C21.381 24 22.5 22.881 22.5 21.5C22.5 21.328 22.476 21.162 22.442 21H17.557H17.558ZM17.5 19H24.5V14H17.5V19ZM19.5 6H17.5V12H24.5V11C24.5 8.243 22.257 6 19.5 6Z"
            fill="url(#paint0_linear_395_117)" />
    </g>
    <defs>
        <linearGradient id="paint0_linear_395_117" x1="12.5" y1="0" x2="12.5" y2="24"
            gradientUnits="userSpaceOnUse">
            <stop stop-color="#9747FF" />
            <stop offset="1" stop-color="#7700B0" />
        </linearGradient>
        <clipPath id="clip0_395_117">
            <rect width="24" height="24" fill="white" transform="translate(0.5)" />
        </clipPath>
    </defs>
</svg>
    