<svg width="25" height="24" viewBox="0 0 25 24" fill="none" xmlns="http://www.w3.org/2000/svg">
    <g clip-path="url(#clip0_395_129)">
        <path
            d="M21.5 6H5.5C4.641 6 3.828 5.628 3.265 5.001C3.815 4.387 4.614 4 5.5 4H23.5C24.808 3.994 24.807 2.005 23.5 2H5.5C2.739 2 0.5 4.239 0.5 7V17C0.5 19.761 2.739 22 5.5 22H21.5C23.157 22 24.5 20.657 24.5 19V9C24.5 7.343 23.157 6 21.5 6ZM20.5 15C19.192 14.994 19.192 13.006 20.5 13C21.808 13.006 21.808 14.994 20.5 15Z"
            fill="black" />
        <path
            d="M21.5 6H5.5C4.641 6 3.828 5.628 3.265 5.001C3.815 4.387 4.614 4 5.5 4H23.5C24.808 3.994 24.807 2.005 23.5 2H5.5C2.739 2 0.5 4.239 0.5 7V17C0.5 19.761 2.739 22 5.5 22H21.5C23.157 22 24.5 20.657 24.5 19V9C24.5 7.343 23.157 6 21.5 6ZM20.5 15C19.192 14.994 19.192 13.006 20.5 13C21.808 13.006 21.808 14.994 20.5 15Z"
            fill="url(#paint0_linear_395_129)" />
    </g>
    <defs>
        <linearGradient id="paint0_linear_395_129" x1="12.5" y1="2" x2="12.5" y2="22"
            gradientUnits="userSpaceOnUse">
            <stop stop-color="#9747FF" />
            <stop offset="1" stop-color="#7700B0" />
        </linearGradient>
        <clipPath id="clip0_395_129">
            <rect width="24" height="24" fill="white" transform="translate(0.5)" />
        </clipPath>
    </defs>
</svg>
    