<svg width="25" height="24" viewBox="0 0 25 24" fill="none" xmlns="http://www.w3.org/2000/svg">
    <g clip-path="url(#clip0_395_723)">
        <path
            d="M22.2 7.6C22 6.1 20.7 5 19.2 5H15.6C15.8 4.5 16 4 16 3.5C16 1.6 14.4 0 12.5 0C10.6 0 9 1.6 9 3.5C9 4 9.1 4.5 9.4 5H5.7C4.2 5 2.9 6.1 2.7 7.6L0.5 23.4V24H24.5V23.5L22.2 7.6ZM12.5 2C13.3 2 14 2.7 14 3.5C14 4.3 13.3 5 12.5 5C11.7 5 11 4.3 11 3.5C11 2.7 11.7 2 12.5 2ZM12.5 19.3C10.1 19.3 8.2 17.4 8.2 15C8.2 12.6 10.1 10.7 12.5 10.7C14.9 10.7 16.8 12.6 16.8 15C16.8 17.4 14.9 19.3 12.5 19.3Z"
            fill="black" />
        <path
            d="M22.2 7.6C22 6.1 20.7 5 19.2 5H15.6C15.8 4.5 16 4 16 3.5C16 1.6 14.4 0 12.5 0C10.6 0 9 1.6 9 3.5C9 4 9.1 4.5 9.4 5H5.7C4.2 5 2.9 6.1 2.7 7.6L0.5 23.4V24H24.5V23.5L22.2 7.6ZM12.5 2C13.3 2 14 2.7 14 3.5C14 4.3 13.3 5 12.5 5C11.7 5 11 4.3 11 3.5C11 2.7 11.7 2 12.5 2ZM12.5 19.3C10.1 19.3 8.2 17.4 8.2 15C8.2 12.6 10.1 10.7 12.5 10.7C14.9 10.7 16.8 12.6 16.8 15C16.8 17.4 14.9 19.3 12.5 19.3Z"
            fill="url(#paint0_linear_395_723)" />
    </g>
    <defs>
        <linearGradient id="paint0_linear_395_723" x1="12.5" y1="0" x2="12.5" y2="24"
            gradientUnits="userSpaceOnUse">
            <stop stop-color="#9747FF" />
            <stop offset="1" stop-color="#7700B0" />
        </linearGradient>
        <clipPath id="clip0_395_723">
            <rect width="24" height="24" fill="white" transform="translate(0.5)" />
        </clipPath>
    </defs>
</svg>
    