<svg width="161" height="87" viewBox="0 0 161 87" fill="none" xmlns="http://www.w3.org/2000/svg">
    <g clip-path="url(#clip0_218_409)">
        <path fill-rule="evenodd" clip-rule="evenodd"
            d="M96.4 61.7H101.6V76L101.4 80.1999L103.6 76.1999L109.9 63.4C110.4 62.3 110.9 61.7999 112.1 61.7999H115.4C116.7 61.7999 117.4 62.4999 117.4 63.7999V86.5999H112.2V71.8L112.5 67.8L110.6 71.6999L104 84.9C103.5 86 102.9 86.5 101.8 86.5H98.4C97.1 86.5 96.5 85.7999 96.5 84.5V61.7H96.4ZM15.9 79.9L17.7 86.4H23.3L16.2 63C16 62.1 15.2 61.5999 14.3 61.5999H9.1C8.2 61.5999 7.4 62.1 7.2 63L0 86.4H5.6L7.4 79.9H15.9ZM14.8 75.6999H8.6L11.2 65.8H12.2L14.8 75.6999ZM44.1 61.5999C42.9 61.5999 42.1 62.2 41.9 63.4L39 80.0999C38.2 74.9999 37.4 68.5 36.1 63.4C35.8 62.3 35.1 61.5999 33.9 61.5999H28.6C27.3 61.5999 26.6 62.3 26.5 63.7L25.6 86.5H30.8L31.5 66L36 84.6999C36.3 85.8999 37 86.5 38.2 86.5H39.7C40.9 86.5 41.7 85.8999 41.9 84.6999L46.3 65.9L47.1 86.4H52.3L51.3 63.5999C51.2 62.2999 50.6 61.5 49.2 61.5H44.1V61.5999ZM71.5 82.0999H62C60.8 82.0999 60.3 81.5999 60.3 80.1999V75.4H70.2V71.4H60.3V67.5999C60.3 66.2999 60.8 65.8 62 65.8H71.5L71.8 61.7C68.4 61.3 64.1 61.2999 60.3 61.2999C57 61.2999 54.8 63.2 54.8 66.3V81.3C54.8 84.4 57 86.3 60.3 86.3C64.2 86.3 68.4 86.3 71.8 85.9L71.5 82.0999ZM94.2 66.0999V61.5999H73.8V66.0999H81.2V86.5H86.7V66.0999H94.2ZM138.3 81.8C136.1 82.1 134.1 82.0999 130.8 82.0999C127.2 82.0999 126.1 80.2999 126.1 74C126.1 67.7 127.2 65.9 130.8 65.9C133.9 65.9 135.4 65.8999 137.8 66.0999L138.3 62C136 61.4 134.3 61.2 130.9 61.2C123.2 61.2 120.5 64.6 120.5 74C120.5 83.5 123.3 86.8 130.9 86.8C134.5 86.8 136.5 86.5 138.9 85.8L138.3 81.8ZM160.7 66.0999V61.5999H140.4V66.0999H147.8V86.5H153.3V66.0999H160.7Z"
            fill="white" />
        <path fill-rule="evenodd" clip-rule="evenodd"
            d="M85.6 3.0999L92.6 15.2999L88.6 22.2999L80.4 8.0999L59.8 43.4999H68.2L72.4 36.4999L80.4 50.5999H58.4C56.2 50.5999 54.3 49.4999 53.2 47.5999C52.1 45.6999 52.1 43.4999 53.2 41.4999L64.2 22.1999L75.2 2.9999C76.3 1.0999 78.2 -0.100098 80.5 -0.100098C82.6 -9.76548e-05 84.5 1.0999 85.6 3.0999Z"
            fill="#7700B0" />
        <path fill-rule="evenodd" clip-rule="evenodd"
            d="M96.7 22.3999L107.6 41.4999C108.7 43.3999 108.7 45.5999 107.6 47.5999C106.5 49.4999 104.6 50.5999 102.4 50.5999H88.8L76.4 29.0999L80.4 22.3999L92.5 43.3999H100.8L92.7 29.2999L96.7 22.3999Z"
            fill="#4E0B78" />
    </g>
    <defs>
        <clipPath id="clip0_218_409">
            <rect width="160.7" height="86.9" fill="white" />
        </clipPath>
    </defs>
</svg>
    