<svg width="20" height="22" viewBox="0 0 20 22" fill="none" xmlns="http://www.w3.org/2000/svg">
    <path d="M19 12.8829L18.9999 8.12817C18.9993 6.99289 18.999 6.42525 18.723 5.94931C18.447 5.47337 17.9544 5.19544 16.9692 4.63957L11.944 1.80421C10.9938 1.26807 10.5187 1 10 1C9.48131 1 9.0062 1.26807 8.05599 1.80421L3.0308 4.63957C2.04562 5.19544 1.55303 5.47337 1.277 5.94931C1.00096 6.42525 1.00069 6.99289 1.00013 8.12817L1 12.8829C1 16.7094 1 18.6226 2.17157 19.8113C3.34315 21 5.22876 21 9 21H11C14.7712 21 16.6569 21 17.8284 19.8113C19 18.6226 19 16.7094 19 12.8829Z" stroke="#7700B0" stroke-width="1.5" stroke-linecap="round"/>
    <path d="M8 12H6M14 12H12M8 8H6M8 16H6M14 8H12M14 16H12" stroke="#7700B0" stroke-width="1.5" stroke-linecap="round"/>
    </svg>
    