<svg width="22" height="20" viewBox="0 0 22 20" fill="none" xmlns="http://www.w3.org/2000/svg">
    <path
        d="M1 10C1 5.75736 1 3.63604 2.46447 2.31802C3.92893 1 6.28596 1 11 1C15.714 1 18.0711 1 19.5355 2.31802C21 3.63604 21 5.75736 21 10C21 14.2426 21 16.364 19.5355 17.682C18.0711 19 15.714 19 11 19C6.28596 19 3.92893 19 2.46447 17.682C1 16.364 1 14.2426 1 10Z"
        stroke="#7700B0" stroke-width="1.5" stroke-linecap="round" stroke-linejoin="round" />
    <path
        d="M7.4 6H6.6C5.84575 6 5.46863 6 5.23431 6.23431C5 6.46863 5 6.84575 5 7.6V8.4C5 9.15425 5 9.53137 5.23431 9.76569C5.46863 10 5.84575 10 6.6 10H7.4C8.15425 10 8.53137 10 8.76569 9.76569C9 9.53137 9 9.15424 9 8.4V7.6C9 6.84576 9 6.46863 8.76569 6.23431C8.53137 6 8.15425 6 7.4 6Z"
        stroke="#7700B0" stroke-width="1.5" stroke-linejoin="round" />
    <path d="M5 14H9" stroke="#7700B0" stroke-width="1.5" stroke-linecap="round"
        stroke-linejoin="round" />
    <path d="M13 6H17" stroke="#7700B0" stroke-width="1.5" stroke-linecap="round"
        stroke-linejoin="round" />
    <path d="M13 10H17" stroke="#7700B0" stroke-width="1.5" stroke-linecap="round"
        stroke-linejoin="round" />
    <path d="M13 14H17" stroke="#7700B0" stroke-width="1.5" stroke-linecap="round"
        stroke-linejoin="round" />
</svg>
    