<svg width="22" height="22" viewBox="0 0 22 22" fill="none" xmlns="http://www.w3.org/2000/svg">
    <path
        d="M1.57956 7.62505C1.50886 7.03528 1.47351 6.74039 1.52323 6.499C1.6651 5.81015 2.27111 5.25159 3.07871 5.06529C3.36172 5 3.717 5 4.42757 5H17.5724C18.283 5 18.6383 5 18.9213 5.06529C19.7289 5.25159 20.3349 5.81015 20.4768 6.499C20.5265 6.74039 20.4911 7.03528 20.4204 7.62505C20.2584 8.97669 19.4991 9.71605 18.0512 10.1423L13.88 11.3703C12.4541 11.7901 11.7411 12 11 12C10.2589 12 9.54589 11.7901 8.11996 11.3703L3.94882 10.1423C2.50094 9.71605 1.7416 8.97669 1.57956 7.62505Z"
        stroke="#7700B0" stroke-width="1.5" />
    <path
        d="M2.46283 9.5L2.26658 11.7757C1.91481 15.855 1.73892 17.8947 2.86734 19.1974C3.99576 20.5 5.93851 20.5 9.82402 20.5H12.176C16.0615 20.5 18.0042 20.5 19.1327 19.1974C20.2611 17.8947 20.0852 15.855 19.7334 11.7757L19.5372 9.5"
        stroke="#7700B0" stroke-width="1.5" stroke-linecap="round" stroke-linejoin="round" />
    <path
        d="M14.5 4.5L14.4227 4.23509C14.0377 2.91505 13.8452 2.25503 13.3869 1.87752C12.9286 1.5 12.3199 1.5 11.1023 1.5H10.8977C9.68014 1.5 9.07139 1.5 8.61309 1.87752C8.15478 2.25503 7.96228 2.91505 7.57727 4.23509L7.5 4.5"
        stroke="#7700B0" stroke-width="1.5" />
</svg>
    