<svg width="72" height="15" viewBox="0 0 72 15" fill="none" xmlns="http://www.w3.org/2000/svg">
    <g clip-path="url(#clip0_218_426)">
        <path fill-rule="evenodd" clip-rule="evenodd"
            d="M47.4525 8.21084C47.4952 8.49084 47.5165 8.70622 47.5805 8.92161C48.0497 10.9247 49.6066 12.2601 51.6326 12.4324C53.4241 12.5831 54.8317 11.8939 55.8767 10.4078C56.3886 9.69699 57.2203 9.56776 57.8814 10.1493C58.2653 10.4724 58.308 10.9031 58.0094 11.3124C57.8388 11.5278 57.6895 11.7431 57.5189 11.9801C56.8364 12.9278 55.9407 13.5739 54.8317 13.9616C53.0402 14.5862 51.2487 14.6724 49.4786 14.0047C47.09 13.1216 45.6824 11.3555 45.2772 8.83546C45.0426 7.28469 45.1919 5.73392 45.8956 4.33392C46.9193 2.33084 48.5189 1.10315 50.7369 0.736995C52.2085 0.500072 53.6587 0.650841 55.0236 1.31853C56.9644 2.24469 58.1374 3.81699 58.5852 5.90623C58.7132 6.48776 58.7559 7.0693 58.7985 7.65084C58.8412 8.01699 58.6705 8.16776 58.308 8.1893C58.1374 8.1893 57.9881 8.1893 57.8175 8.1893C54.5118 8.1893 51.2061 8.1893 47.9217 8.1893C47.7724 8.21084 47.6658 8.21084 47.4525 8.21084ZM56.4739 6.01392C56.1966 4.14007 53.9573 2.50315 51.8885 2.63238C49.7345 2.76161 47.6018 4.42007 47.5165 6.01392C50.481 6.01392 53.4881 6.01392 56.4739 6.01392Z"
            fill="#ECECEC" fill-opacity="0.5" />
        <path fill-rule="evenodd" clip-rule="evenodd"
            d="M30.5189 8.14633C30.5402 8.34017 30.5615 8.4694 30.5829 8.62017C30.9881 10.8386 32.7796 12.3679 34.9976 12.4109C36.6824 12.4325 37.9833 11.7433 38.9644 10.3648C39.4762 9.63248 40.3933 9.54633 41.0331 10.1925C41.3317 10.5156 41.3957 10.9032 41.0971 11.2909C40.9691 11.4848 40.8412 11.6571 40.6919 11.8079C39.9668 12.8848 38.9644 13.574 37.7487 13.9833C35.9573 14.5863 34.1658 14.6294 32.4383 13.9402C29.9644 12.9709 28.5781 11.054 28.2796 8.38325C28.1303 7.09094 28.2582 5.84171 28.7914 4.65709C29.8364 2.41709 31.5213 1.03863 33.9739 0.715555C35.2748 0.543247 36.5758 0.65094 37.7701 1.14632C39.9454 2.05094 41.2037 3.75248 41.6942 6.0571C41.7796 6.57402 41.8435 7.13402 41.8649 7.65094C41.8862 8.08171 41.8009 8.16786 41.353 8.16786C40.5852 8.16786 39.7748 8.16786 38.9857 8.16786C36.3412 8.16786 33.6966 8.16786 31.0947 8.16786C30.9028 8.14633 30.7322 8.14633 30.5189 8.14633ZM39.5829 5.9494C39.3056 4.09709 37.1303 2.52479 34.9976 2.56786C32.9288 2.61094 30.7748 4.29094 30.6042 5.9494C33.59 5.9494 36.5544 5.9494 39.5829 5.9494Z"
            fill="#ECECEC" fill-opacity="0.5" />
        <path fill-rule="evenodd" clip-rule="evenodd"
            d="M67.6279 9.13704C67.7985 9.28781 67.8838 9.37396 67.9905 9.46011C69.1421 10.4509 70.2938 11.4417 71.4241 12.4324C71.4881 12.497 71.5947 12.5832 71.6587 12.6478C72.0853 13.0786 72.1279 13.7032 71.7227 14.134C71.3388 14.5647 70.7417 14.6293 70.2938 14.2632C69.4834 13.5955 68.7156 12.9063 67.9265 12.2386C66.7962 11.2693 65.6872 10.3001 64.5568 9.33088C64.4715 9.24473 64.3436 9.15858 64.1729 9.02934C64.1729 9.26627 64.1516 9.41704 64.1516 9.56781C64.1516 12.3032 64.1516 10.257 64.1516 12.9924C64.1516 13.1217 64.1516 13.2509 64.1516 13.3801C64.109 13.9832 63.6611 14.414 63.0639 14.3709C62.4881 14.3493 62.1042 13.9186 62.0829 13.3155C62.0829 13.1863 62.0829 13.057 62.0829 12.9278C62.0829 7.52165 62.0829 6.89704 62.0829 1.49088C62.0829 1.31858 62.0829 1.16781 62.0829 0.995498C62.0829 0.607806 62.1255 0.543191 62.4881 0.543191C62.9786 0.521652 63.4691 0.521652 63.9597 0.521652C65.1327 0.521652 66.3483 0.564729 67.5213 0.500114C69.5047 0.41396 71.7227 2.02934 71.936 4.37704C72.1279 6.48781 70.699 8.49088 68.5663 8.92165C68.2891 8.98627 67.9905 9.07242 67.6279 9.13704ZM64.0236 7.47858C64.1516 7.50011 64.2369 7.50011 64.3009 7.50011C65.2819 7.50011 66.2843 7.50011 67.2654 7.50011C67.5426 7.50011 67.8412 7.47858 68.1184 7.37088C69.0355 7.09088 69.7606 6.53088 69.9952 5.54011C70.4004 3.83858 69.1421 2.28781 67.4146 2.28781C66.3909 2.28781 65.3886 2.28781 64.3436 2.28781C64.2156 2.28781 64.109 2.30934 63.981 2.30934C64.0236 4.03242 64.0236 5.73396 64.0236 7.47858Z"
            fill="#ECECEC" fill-opacity="0.5" />
        <path fill-rule="evenodd" clip-rule="evenodd"
            d="M22.8411 8.1678C20.8791 8.1678 18.981 8.1678 17.0402 8.1678C17.0402 8.34011 17.0189 8.49088 17.0189 8.64165C17.0189 10.1493 17.0189 11.6355 17.0189 13.1432C17.0189 13.337 17.0189 13.5309 16.9762 13.6817C16.8269 14.134 16.3577 14.414 15.9099 14.3924C15.4194 14.3493 15.0141 13.9616 14.9502 13.4663C14.9288 13.337 14.9502 13.2293 14.9502 13.1001C14.9502 7.73704 14.9288 7.09088 14.9288 1.74934C14.9288 1.53396 14.9502 1.31858 15.0141 1.12473C15.1848 0.672422 15.654 0.41396 16.1445 0.478576C16.5923 0.543191 16.9762 0.930883 17.0189 1.40473C17.0402 1.5555 17.0189 1.68473 17.0189 1.8355C17.0189 4.59242 17.0402 2.63242 17.0402 5.38934C17.0402 5.56165 17.0615 5.71242 17.0615 5.86319C17.4241 5.94934 22.4573 5.94934 22.8411 5.86319C22.8411 5.73396 22.8625 5.60473 22.8625 5.45396C22.8625 4.24781 22.8625 3.02011 22.8625 1.81396C22.8625 1.68473 22.8625 1.57704 22.8625 1.44781C22.9051 0.909345 23.3103 0.500114 23.8435 0.478576C24.3767 0.457037 24.8672 0.866268 24.9312 1.40473C24.9525 1.53396 24.9312 1.64165 24.9312 1.77088C24.9312 5.54011 24.9312 9.2878 24.9312 13.057C24.9312 13.1863 24.9312 13.294 24.9312 13.4232C24.8672 13.9616 24.398 14.3924 23.8648 14.3709C23.3317 14.3493 22.9051 13.9186 22.8411 13.3801C22.8411 13.2509 22.8411 13.1432 22.8411 13.014C22.8411 11.5709 22.8411 10.0847 22.8411 8.64165C22.8411 8.51242 22.8411 8.36165 22.8411 8.1678Z"
            fill="#ECECEC" fill-opacity="0.5" />
        <path fill-rule="evenodd" clip-rule="evenodd"
            d="M5.8649 14.4785C4.47865 14.457 3.1777 14.1554 1.98339 13.4231C1.47154 13.1216 1.00234 12.7339 0.618457 12.2816C0.426514 12.0447 0.191916 11.8077 0.106608 11.5062C-0.0213538 11.1185 -0.0426808 10.6877 0.319878 10.3431C0.725092 9.95544 1.27959 9.80467 1.8341 10.1708C2.36727 10.5585 2.6232 11.0539 3.07106 11.5062C3.71087 12.1524 4.54263 12.497 5.43836 12.6047C6.27011 12.6908 7.08054 12.6693 7.89097 12.3893C8.21087 12.2601 8.55211 12.1093 8.82936 11.8939C9.3412 11.3124 9.49049 10.4939 8.87201 9.9339C8.57343 9.67544 8.18955 9.48159 7.80566 9.30928C6.86727 8.90005 5.88623 8.62005 4.90519 8.36159C4.09476 8.16775 3.32699 7.90928 2.51656 7.67236C2.21798 7.58621 1.9194 7.4139 1.64215 7.26313C0.895708 6.8539 0.469168 6.20775 0.341205 5.38928C0.106608 3.68775 0.725092 2.15852 2.19666 1.40467C4.49997 0.263131 6.8886 0.370823 9.19192 1.68467C9.61846 1.92159 10.0237 2.28775 10.3862 2.61082C10.6635 2.84775 10.8767 3.19236 10.9834 3.55852C11.09 4.01082 10.8767 4.48467 10.3222 4.6139C9.85305 4.72159 9.42651 4.57082 9.08528 4.20467C9.0213 4.14005 8.95732 4.0539 8.91466 3.98928C8.38149 3.17082 7.59239 2.71852 6.654 2.54621C5.71561 2.3739 4.77722 2.39544 3.88149 2.76159C3.56158 2.89082 3.22035 3.06313 2.96443 3.30005C2.58054 3.81698 2.43125 4.50621 2.9431 5.15236C3.34831 5.54005 3.81751 5.75544 4.32936 5.86313C5.45969 6.14313 6.61135 6.44467 7.74168 6.72467C8.4668 6.91852 9.17059 7.15544 9.83173 7.54313C10.6848 7.99544 11.3033 8.66313 11.5166 9.63236C11.7725 10.817 11.5166 11.937 10.5995 12.7985C9.55447 13.7462 8.36016 14.2631 6.97391 14.4139C6.59002 14.457 6.20613 14.457 5.8649 14.4785Z"
            fill="#ECECEC" fill-opacity="0.5" />
    </g>
    <defs>
        <clipPath id="clip0_218_426">
            <rect width="72" height="14" fill="white" transform="translate(0 0.5)" />
        </clipPath>
    </defs>
</svg>
    