<svg width="230" height="42" viewBox="0 0 230 42" fill="none" xmlns="http://www.w3.org/2000/svg">
    <g clip-path="url(#clip0_202_353)">
        <path fill-rule="evenodd" clip-rule="evenodd"
            d="M159.71 14.4257H165.395V29.8203L165.176 34.3418L167.581 30.0356L174.468 16.2559C175.014 15.0717 175.561 14.5334 176.873 14.5334H180.48C181.901 14.5334 182.666 15.287 182.666 16.6865V41.2317H176.982V25.2988L177.31 20.9926L175.233 25.1912L168.127 39.4016C167.581 40.5858 166.925 41.124 165.722 41.124H161.787C160.366 41.124 159.71 40.3705 159.71 38.9709V14.4257ZM71.7111 34.1265L73.6788 41.124H79.8004L71.9297 15.9329C71.7111 14.964 70.8366 14.4257 69.8527 14.4257H64.1683C63.1845 14.4257 62.3099 14.964 62.0913 15.9329L54.2206 41.124H60.3423L62.3099 34.1265H71.7111ZM70.3993 29.4974H63.6217L66.4639 18.8396H67.5571L70.3993 29.4974ZM102.429 14.4257C101.117 14.4257 100.242 15.0717 100.024 16.3635L96.963 34.3418C96.0885 28.8514 95.2139 21.8539 93.7928 16.3635C93.4649 15.1793 92.6997 14.4257 91.3879 14.4257H85.5942C84.1731 14.4257 83.4078 15.1793 83.2985 16.6865L82.3147 41.2317H87.9991L88.7643 19.1625L93.5742 39.4016C93.9021 40.6934 94.6674 41.3393 95.9791 41.3393H97.6189C98.9307 41.3393 99.8052 40.6934 100.024 39.4016L104.943 18.9472L105.818 41.0164H111.502L110.409 16.4712C110.299 15.0717 109.644 14.2104 108.113 14.2104H102.429V14.4257ZM132.381 36.4949H121.996C120.684 36.4949 120.138 35.9566 120.138 34.4495V29.282H130.96V24.9759H120.138V20.885C120.138 19.4855 120.684 18.9472 121.996 18.9472H132.381L132.709 14.5334C128.992 14.1028 124.292 14.1028 120.138 14.1028C116.53 14.1028 114.126 16.1482 114.126 19.4855V35.6337C114.126 38.9709 116.53 41.0164 120.138 41.0164C124.401 41.0164 128.992 41.0164 132.709 40.5858L132.381 36.4949ZM157.196 19.1625V14.3181H135.005V19.1625H143.094V41.124H149.107V19.1625H157.196ZM205.404 36.0643C202.999 36.3872 200.813 36.3872 197.205 36.3872C193.27 36.3872 192.068 34.4495 192.068 27.6672C192.068 20.885 193.27 18.9472 197.205 18.9472C200.594 18.9472 202.234 18.9472 204.857 19.1625L205.404 14.7487C202.89 14.1028 201.031 13.8875 197.315 13.8875C188.897 13.8875 185.946 17.5477 185.946 27.6672C185.946 37.7867 189.007 41.447 197.315 41.447C201.25 41.447 203.436 41.124 206.06 40.3705L205.404 36.0643ZM230 19.1625V14.3181H207.7V19.1625H215.789V41.124H221.801V19.1625H230Z"
            fill="white" />
        <path fill-rule="evenodd" clip-rule="evenodd"
            d="M27.8753 2.47604L33.669 12.4879L30.2803 18.1936L23.5027 6.67456L6.23082 35.7413H13.227L16.7251 30.0356L23.3934 41.6623H5.02835C3.16999 41.6623 1.53025 40.801 0.655727 39.1862C-0.328113 37.5714 -0.328113 35.8489 0.655727 34.2341L9.94755 18.3012L19.1301 2.58369C20.0046 0.968877 21.6443 0.107641 23.5027 0.107641C25.3611 -1.31801e-05 26.8915 0.861222 27.8753 2.47604Z"
            fill="white" />
        <path fill-rule="evenodd" clip-rule="evenodd"
            d="M37.0579 18.4089L46.1311 34.1265C47.0056 35.7413 47.0056 37.5714 46.1311 39.0786C45.1473 40.6934 43.6169 41.5546 41.7585 41.5546H30.499L20.114 23.8993L23.3935 18.4089L33.4505 35.6336H40.4467L33.6691 24.1146L37.0579 18.4089Z"
            fill="white" />
    </g>
    <defs>
        <clipPath id="clip0_202_353">
            <rect width="230" height="41.5546" fill="white" />
        </clipPath>
    </defs>
</svg>
    