<svg width="40" height="47" viewBox="0 0 40 47" fill="none" xmlns="http://www.w3.org/2000/svg">
    <path d="M20 47L24.3301 38H15.6699L20 47Z" fill="#633186" />
    <rect width="40" height="40" rx="6" fill="#633186" />
    <g clip-path="url(#clip0_115_686)">
        <path fill-rule="evenodd" clip-rule="evenodd"
            d="M22.4519 9.40909L25.6904 14.9545L23.8398 18.1364L20.0462 11.6818L10.4697 27.7727H14.3558L16.2989 24.5909L20 31H9.82203C8.80424 31 7.92524 30.5 7.41634 29.6364C6.90744 28.7727 6.90744 27.7727 7.41634 26.8636L12.5053 18.0909L17.5943 9.36364C18.1032 8.5 18.9822 8 20 8C21.064 8 21.943 8.5 22.4519 9.40909Z"
            fill="white" />
        <path fill-rule="evenodd" clip-rule="evenodd"
            d="M27.5871 18.1818L32.6298 26.8636C33.1387 27.7273 33.1387 28.7273 32.6298 29.6364C32.1209 30.5 31.2419 31 30.2241 31H23.9323L18.1494 21.2273L19.9999 18.1818L25.5978 27.7273H29.4377L25.6903 21.3182L27.5871 18.1818Z"
            fill="white" />
    </g>
    <defs>
        <clipPath id="clip0_115_686">
            <rect width="26" height="23" fill="white" transform="translate(7 8)" />
        </clipPath>
    </defs>
</svg>
    