<svg width="40" height="40" viewBox="0 0 40 40" fill="none" xmlns="http://www.w3.org/2000/svg">
    <circle cx="20" cy="20" r="20" fill="#2F80ED" />
    <path
        d="M24.4906 28.1006C24.35 28.1006 24.2103 28.059 24.0905 27.9777L19.5646 24.9077L17.1371 26.6544C16.9467 26.7913 16.7014 26.8258 16.4803 26.7467C16.2595 26.6675 16.0918 26.4846 16.032 26.2578L14.8131 21.6387L10.458 19.9735C10.1838 19.8686 10.002 19.6063 10 19.3127C9.99802 19.0192 10.1762 18.7544 10.4491 18.6458L27.0088 12.0566C27.084 12.0247 27.1635 12.0062 27.2437 12.0013C27.2724 11.9996 27.3011 11.9996 27.3297 12.0012C27.4958 12.0111 27.6589 12.0787 27.7862 12.2036C27.7994 12.2165 27.812 12.2297 27.8238 12.2435C27.9293 12.3639 27.9872 12.5108 27.9982 12.6604C28.0008 12.698 28.0006 12.7361 27.9973 12.7742C27.995 12.8014 27.9911 12.8285 27.9856 12.8553L25.1904 27.5214C25.1455 27.757 24.9851 27.9543 24.7636 28.0461C24.6757 28.0826 24.5829 28.1006 24.4906 28.1006ZM19.962 23.4553L23.9935 26.1899L26.1685 14.7781L18.3131 22.3369L19.943 23.4425C19.9495 23.4466 19.9558 23.451 19.962 23.4553ZM16.6059 22.8472L17.1457 24.8926L18.3087 24.0557L16.7858 23.0227C16.715 22.9748 16.6544 22.9152 16.6059 22.8472ZM12.673 19.2946L15.6634 20.4379C15.8776 20.5198 16.0393 20.6999 16.0978 20.9217L16.4771 22.3589C16.4944 22.1931 16.5696 22.0372 16.6917 21.9196L24.1767 14.7173L12.673 19.2946Z"
        fill="white" />
</svg>
    