<svg width="40" height="40" viewBox="0 0 40 40" fill="none" xmlns="http://www.w3.org/2000/svg">
    <circle cx="20" cy="20" r="20" fill="#5FBC74" />
    <path
        d="M26.3401 13.6139C24.6476 11.9293 22.396 11.001 19.9996 11C17.6086 11 15.3534 11.9275 13.6497 13.6117C11.943 15.2988 11.0022 17.5408 11 19.9166V19.921C11.0003 21.359 11.3784 22.8096 12.0963 24.1337L11.0246 29L15.9516 27.8804C17.1995 28.5086 18.5918 28.8399 19.9962 28.8404H19.9997C22.3903 28.8404 24.6455 27.9128 26.3495 26.2284C28.0577 24.54 28.9989 22.3008 29 19.9235C29.0007 17.563 28.0562 15.3222 26.3401 13.6139ZM19.9996 27.4355H19.9964C18.7355 27.435 17.4861 27.1187 16.3835 26.5207L16.1505 26.3943L12.8743 27.1388L13.5859 23.9077L13.4487 23.6714C12.7667 22.4962 12.4062 21.199 12.4062 19.9195C12.4088 15.7781 15.8149 12.4049 19.9993 12.4049C22.0208 12.4057 23.9203 13.1886 25.3477 14.6091C26.7966 16.0517 27.5943 17.9388 27.5936 19.9231C27.592 24.0655 24.1853 27.4355 19.9996 27.4355Z"
        fill="white" />
    <path
        d="M17.5507 15.9874H17.1562C17.0189 15.9874 16.7959 16.0387 16.6073 16.2438C16.4186 16.4489 15.8867 16.9448 15.8867 17.9534C15.8867 18.9619 16.6245 19.9364 16.7273 20.0733C16.8303 20.2101 18.1514 22.3459 20.2439 23.1675C21.9829 23.8503 22.3368 23.7145 22.7142 23.6803C23.0916 23.6462 23.9322 23.1845 24.1038 22.7059C24.2753 22.2273 24.2753 21.817 24.2239 21.7313C24.1724 21.6459 24.035 21.5947 23.8293 21.4922C23.6233 21.3896 22.6144 20.8854 22.4256 20.8168C22.2369 20.7486 22.0997 20.7144 21.9624 20.9197C21.8251 21.1246 21.4208 21.5986 21.3007 21.7354C21.1807 21.8723 21.0605 21.8895 20.8546 21.7869C20.6487 21.6841 19.9924 21.4638 19.206 20.7656C18.5939 20.2222 18.1692 19.5292 18.049 19.3241C17.929 19.119 18.0362 19.0081 18.1395 18.9058C18.232 18.814 18.3569 18.6885 18.4599 18.5689C18.5627 18.4491 18.592 18.3637 18.6607 18.2269C18.7293 18.0902 18.6949 17.9704 18.6435 17.868C18.592 17.7654 18.1969 16.7518 18.0138 16.3464C17.8596 16.005 17.6974 15.9934 17.5507 15.9874Z"
        fill="white" />
</svg>
    