<svg width="34" height="36" viewBox="0 0 34 36" fill="none" xmlns="http://www.w3.org/2000/svg">
    <path
        d="M6.9928 0.67969C6.76624 0.80469 6.57093 0.99219 6.41468 1.24219C6.1803 1.61719 6.1803 1.63281 6.15686 2.90625C6.13343 4.16406 6.13343 4.19531 6.33655 4.61719C6.63343 5.21875 7.00843 5.45313 7.7428 5.48438C8.53968 5.53125 9.03968 5.25 9.37561 4.58594C9.47718 4.38281 9.50061 4.07813 9.50061 3C9.50061 1.58594 9.46155 1.39844 9.07874 0.984377C8.6178 0.476565 7.64905 0.33594 6.9928 0.67969Z"
        fill="url(#paint0_linear_165_1018)" />
    <path
        d="M25.3984 0.625012C25.0547 0.812512 24.8125 1.0547 24.6484 1.37501C24.5234 1.62501 24.5 1.84376 24.5 3.00001C24.5 4.07814 24.5234 4.38282 24.625 4.58595C24.9609 5.25782 25.4609 5.53126 26.2578 5.48439C26.9688 5.45314 27.3672 5.20314 27.6641 4.6172C27.8516 4.2422 27.8594 4.14845 27.8594 3.00001C27.8594 1.84376 27.8516 1.75782 27.6562 1.3672C27.3516 0.765637 26.9844 0.546887 26.2266 0.515637C25.7969 0.500012 25.5703 0.531262 25.3984 0.625012Z"
        fill="url(#paint1_linear_165_1018)" />
    <path
        d="M2.57812 3.14062C1.44531 3.53125 0.617188 4.46875 0.367188 5.64062C0.3125 5.89844 0.28125 7.03906 0.28125 8.70312V11.3594H17H33.7188V8.70312C33.7188 7.03906 33.6875 5.89844 33.6328 5.64062C33.4141 4.63281 32.7422 3.76562 31.8047 3.30469C31.3047 3.0625 31.1953 3.03906 30.3984 3.00781L29.5312 2.98438L29.4453 3.85156C29.3359 4.9375 29.0781 5.55469 28.4531 6.16406C27.1406 7.44531 25.1719 7.42969 23.8672 6.13281C23.1719 5.42969 22.8594 4.61719 22.8594 3.5V3H17H11.1406V3.5C11.1406 4.63281 10.8359 5.42188 10.1328 6.13281C8.82812 7.42969 6.86719 7.44531 5.54688 6.16406C4.92188 5.55469 4.66406 4.9375 4.55469 3.85938L4.46875 3H3.72656C3.21875 3.00781 2.84375 3.04688 2.57812 3.14062Z"
        fill="url(#paint2_linear_165_1018)" />
    <path
        d="M0.28125 22.7266C0.28125 29.625 0.304688 32.5625 0.367188 32.8594C0.585938 33.8672 1.25781 34.7344 2.19531 35.1953L2.74219 35.4609H17H31.2578L31.8047 35.1953C32.7422 34.7344 33.4141 33.8672 33.6328 32.8594C33.6953 32.5625 33.7188 29.625 33.7188 22.7266V13H17H0.28125V22.7266ZM9.30469 17.3672C9.47656 17.4453 9.71094 17.6094 9.82812 17.7344C10.2188 18.1484 10.2812 18.4375 10.2812 19.6953C10.2812 21.0234 10.1953 21.3203 9.69531 21.7266C9.26562 22.0859 8.89062 22.1562 7.65625 22.125C6.63281 22.1016 6.54688 22.0859 6.20312 21.8828C5.96094 21.7422 5.75781 21.5391 5.61719 21.2969C5.41406 20.9531 5.39844 20.8672 5.375 19.8438C5.34375 18.6094 5.41406 18.2344 5.77344 17.8047C6.17969 17.3047 6.47656 17.2188 7.82031 17.2188C8.79688 17.2188 9.04688 17.25 9.30469 17.3672ZM18.7266 17.4922C18.9297 17.6328 19.1406 17.8828 19.2578 18.1172C19.4531 18.4844 19.4609 18.5703 19.4609 19.6797C19.4609 21.0078 19.3984 21.2266 18.875 21.7031C18.4688 22.0625 18.1562 22.1406 17 22.1406C15.8438 22.1406 15.5312 22.0625 15.125 21.7031C14.6719 21.2891 14.5625 20.9844 14.5156 20C14.4531 18.4922 14.7031 17.7812 15.4375 17.3984C15.7734 17.2188 15.8438 17.2109 17.0938 17.2344L18.3906 17.2578L18.7266 17.4922ZM27.6719 17.3672C28.0625 17.5469 28.4375 17.9922 28.5625 18.4297C28.625 18.6406 28.6484 19.1562 28.625 19.8438C28.6016 20.8672 28.5859 20.9531 28.3828 21.2969C28.2422 21.5391 28.0391 21.7422 27.7969 21.8828C27.4531 22.0859 27.3672 22.1016 26.3438 22.125C25.1094 22.1562 24.7344 22.0859 24.3047 21.7266C23.8047 21.3203 23.7188 21.0234 23.7188 19.6953C23.7188 18.4375 23.7812 18.1484 24.1719 17.7344C24.5781 17.2969 24.8828 17.2188 26.1797 17.2188C27.1562 17.2188 27.4062 17.25 27.6719 17.3672ZM9.11719 26.4453C9.52344 26.5703 9.96094 26.9453 10.1328 27.3281C10.25 27.5938 10.2812 27.8438 10.2812 28.8203C10.2812 30.1172 10.2031 30.4219 9.76562 30.8281C9.35156 31.2188 9.0625 31.2812 7.80469 31.2812C6.47656 31.2812 6.17969 31.1953 5.77344 30.6953C5.41406 30.2656 5.34375 29.8906 5.375 28.6562C5.39844 27.6406 5.41406 27.5469 5.60938 27.2031C5.82812 26.8438 6.1875 26.5625 6.59375 26.4375C6.91406 26.3359 8.78125 26.3438 9.11719 26.4453ZM18.2734 26.4453C18.6406 26.5469 19.125 26.9688 19.3125 27.3594C19.4375 27.6016 19.4609 27.8359 19.4609 28.8203C19.4609 29.9297 19.4531 30.0156 19.2578 30.3828C19.1406 30.6172 18.9297 30.8672 18.7266 31.0078L18.3906 31.2422H17H15.6094L15.2734 31.0078C15.0703 30.8672 14.8594 30.6172 14.7422 30.3828C14.5469 30.0156 14.5391 29.9297 14.5391 28.8203C14.5391 27.8516 14.5625 27.6016 14.6797 27.3672C14.8672 26.9844 15.2812 26.6016 15.6406 26.4766C16.0078 26.3438 17.8359 26.3203 18.2734 26.4453ZM27.7969 26.6172C28.0391 26.7578 28.2422 26.9609 28.3828 27.2031C28.5859 27.5469 28.6016 27.6328 28.625 28.6562C28.6562 29.8906 28.5859 30.2656 28.2266 30.6953C27.8203 31.1953 27.5234 31.2812 26.1953 31.2812C24.9375 31.2812 24.6484 31.2188 24.2344 30.8281C23.7969 30.4219 23.7188 30.1172 23.7188 28.8203C23.7188 27.4766 23.8125 27.1641 24.2969 26.7812C24.7656 26.4062 24.9844 26.3594 26.2578 26.3828C27.3828 26.3984 27.4453 26.4062 27.7969 26.6172Z"
        fill="url(#paint3_linear_165_1018)" />
    <defs>
        <linearGradient id="paint0_linear_165_1018" x1="7.82355" y1="5.48938" x2="7.82355"
            y2="0.491121" gradientUnits="userSpaceOnUse">
            <stop stop-color="#9747FF" />
            <stop offset="1" stop-color="#7700B0" />
        </linearGradient>
        <linearGradient id="paint1_linear_165_1018" x1="26.1797" y1="5.4895" x2="26.1797"
            y2="0.511801" gradientUnits="userSpaceOnUse">
            <stop stop-color="#9747FF" />
            <stop offset="1" stop-color="#7700B0" />
        </linearGradient>
        <linearGradient id="paint2_linear_165_1018" x1="17" y1="11.3594" x2="17" y2="2.98438"
            gradientUnits="userSpaceOnUse">
            <stop stop-color="#9747FF" />
            <stop offset="1" stop-color="#7700B0" />
        </linearGradient>
        <linearGradient id="paint3_linear_165_1018" x1="17" y1="35.4609" x2="17" y2="13"
            gradientUnits="userSpaceOnUse">
            <stop stop-color="#9747FF" />
            <stop offset="1" stop-color="#7700B0" />
        </linearGradient>
    </defs>
</svg>
    