<svg width="40" height="40" viewBox="0 0 40 40" fill="none" xmlns="http://www.w3.org/2000/svg">
    <path
        d="M17.4844 0.117188C13.7422 0.632812 10.3594 2.07812 7.42188 4.42188C6.57031 5.10156 5.10156 6.57031 4.42188 7.42188C2.42188 9.92188 0.960938 13.0156 0.359375 16.0156C-0.125 18.4453 -0.125 21.5547 0.359375 23.9844C0.960938 26.9922 2.42969 30.0938 4.42969 32.5781C5.17188 33.5078 6.53125 34.8594 7.5 35.625C9.73438 37.3984 12.375 38.7266 15.0781 39.4141C16.5938 39.8047 17.6016 39.9375 19.4375 39.9766L21.1719 40.0234V36.4688V32.9062L19.9453 32.8516C17.6406 32.75 16.0078 32.3438 14.2188 31.4375C12.9219 30.7734 11.9375 30.0625 10.9375 29.0625C9.9375 28.0625 9.22656 27.0781 8.5625 25.7812C7.60156 23.8984 7.1875 22.1406 7.1875 20C7.1875 17.8594 7.60156 16.1016 8.5625 14.2188C9.22656 12.9219 9.9375 11.9375 10.9375 10.9375C13.3672 8.51562 16.5547 7.1875 19.9609 7.17969C20.6094 7.17969 21.3984 7.21875 21.7188 7.26562C23.0312 7.45312 24.4688 7.89062 25.5781 8.45312L26.1953 8.76562L25.1875 9.77344C24.6406 10.3203 24.2031 10.7891 24.2188 10.8047C24.3047 10.875 36.3359 13.2188 36.3828 13.1797C36.4219 13.1328 34.0781 1.09375 34.0078 1.01562C33.9922 1 33.3906 1.57031 32.6719 2.28125L31.3672 3.57812L30.6641 3.11719C28.3672 1.60938 25.2188 0.46875 22.3438 0.109375C21.2344 -0.0234375 18.5234 -0.0234375 17.4844 0.117188Z"
        fill="url(#paint0_linear_165_1008)" />
    <path
        d="M11.7969 15.3125V16.4844H14.1406H16.4844V17.6562V18.8281H14.1406H11.7969V22.3438V25.8594H15.3125H18.8281V24.6875V23.5156H16.4844H14.1406V22.3438V21.1719H16.4844H18.8281V17.6562V14.1406H15.3125H11.7969V15.3125Z"
        fill="url(#paint1_linear_165_1008)" />
    <path
        d="M21.1719 17.6562V21.1719H23.5156H25.8594V23.5156V25.8594H27.0312H28.2031V20V14.1406H27.0312H25.8594V16.4844V18.8281H24.6875H23.5156V16.4844V14.1406H22.3438H21.1719V17.6562Z"
        fill="url(#paint2_linear_165_1008)" />
    <path
        d="M36.0161 15.961C34.063 16.2969 32.4614 16.5781 32.4536 16.586C32.4458 16.5938 32.5317 17.125 32.6489 17.7735C32.8599 18.9297 32.8599 18.9453 33.0552 18.9219C33.6646 18.8516 39.938 17.7422 39.9771 17.7031C40.0317 17.6485 39.7036 15.5625 39.6177 15.4297C39.5864 15.375 38.3599 15.5547 36.0161 15.961Z"
        fill="url(#paint3_linear_165_1008)" />
    <path
        d="M32.8279 21.3984C32.6482 22.25 32.4763 23.3672 32.5154 23.4063C32.5388 23.4297 34.1013 23.7188 35.9841 24.0547C38.3044 24.4609 39.4294 24.6328 39.4607 24.5781C39.5388 24.4453 39.8826 22.3516 39.8279 22.3047C39.8044 22.2813 38.2966 22 36.4763 21.6797C34.656 21.3594 33.1013 21.0781 33.031 21.0625C32.9294 21.0391 32.8826 21.1172 32.8279 21.3984Z"
        fill="url(#paint4_linear_165_1008)" />
    <path
        d="M31.4611 25.8359C30.758 27.0234 30.5393 27.4453 30.5939 27.5C30.6643 27.5703 36.4611 30.9297 36.6096 30.9922C36.7189 31.0312 37.9221 28.9766 37.8361 28.8984C37.7658 28.8359 31.7971 25.3906 31.758 25.3906C31.7424 25.3906 31.6096 25.5937 31.4611 25.8359Z"
        fill="url(#paint5_linear_165_1008)" />
    <path
        d="M28.2656 29.8047C27.7812 30.2187 27.3828 30.5781 27.3828 30.6093C27.3828 30.7031 31.8203 36.0078 31.9062 36.0078C32 36.0156 33.7578 34.5234 33.7344 34.4531C33.6875 34.3437 29.2578 29.0703 29.2031 29.0703C29.1719 29.0625 28.75 29.3984 28.2656 29.8047Z"
        fill="url(#paint6_linear_165_1008)" />
    <path
        d="M24.3361 32.1016C23.6173 32.3672 23.3205 32.5078 23.3283 32.5938C23.3517 32.875 25.672 39.1406 25.758 39.1406C25.8673 39.1406 27.8283 38.4375 27.9064 38.3672C28.008 38.2812 25.6017 31.7656 25.4689 31.7422C25.4064 31.7344 24.8986 31.8906 24.3361 32.1016Z"
        fill="url(#paint7_linear_165_1008)" />
    <defs>
        <linearGradient id="paint0_linear_165_1008" x1="18.1897" y1="40.0234" x2="18.1897"
            y2="0.0107231" gradientUnits="userSpaceOnUse">
            <stop stop-color="#9747FF" />
            <stop offset="1" stop-color="#7700B0" />
        </linearGradient>
        <linearGradient id="paint1_linear_165_1008" x1="15.3125" y1="25.8594" x2="15.3125"
            y2="14.1406" gradientUnits="userSpaceOnUse">
            <stop stop-color="#9747FF" />
            <stop offset="1" stop-color="#7700B0" />
        </linearGradient>
        <linearGradient id="paint2_linear_165_1008" x1="24.6875" y1="25.8594" x2="24.6875"
            y2="14.1406" gradientUnits="userSpaceOnUse">
            <stop stop-color="#9747FF" />
            <stop offset="1" stop-color="#7700B0" />
        </linearGradient>
        <linearGradient id="paint3_linear_165_1008" x1="36.2181" y1="18.9268" x2="36.2181"
            y2="15.4201" gradientUnits="userSpaceOnUse">
            <stop stop-color="#9747FF" />
            <stop offset="1" stop-color="#7700B0" />
        </linearGradient>
        <linearGradient id="paint4_linear_165_1008" x1="36.1717" y1="24.588" x2="36.1717"
            y2="21.0586" gradientUnits="userSpaceOnUse">
            <stop stop-color="#9747FF" />
            <stop offset="1" stop-color="#7700B0" />
        </linearGradient>
        <linearGradient id="paint5_linear_165_1008" x1="34.2132" y1="30.9927" x2="34.2132"
            y2="25.3906" gradientUnits="userSpaceOnUse">
            <stop stop-color="#9747FF" />
            <stop offset="1" stop-color="#7700B0" />
        </linearGradient>
        <linearGradient id="paint6_linear_165_1008" x1="30.5587" y1="36.0078" x2="30.5587"
            y2="29.0701" gradientUnits="userSpaceOnUse">
            <stop stop-color="#9747FF" />
            <stop offset="1" stop-color="#7700B0" />
        </linearGradient>
        <linearGradient id="paint7_linear_165_1008" x1="25.6188" y1="39.1406" x2="25.6188"
            y2="31.7419" gradientUnits="userSpaceOnUse">
            <stop stop-color="#9747FF" />
            <stop offset="1" stop-color="#7700B0" />
        </linearGradient>
    </defs>
</svg>
    