<svg width="36" height="36" viewBox="0 0 36 36" fill="none" xmlns="http://www.w3.org/2000/svg">
    <path
        d="M16.0703 0.656281C15.5469 0.968781 15.5469 0.992218 15.5 3.50784C15.4609 5.60941 15.4531 5.78909 15.2969 6.04691C15.0625 6.44534 14.6875 6.67191 14.25 6.67191C13.8125 6.67191 13.4375 6.44534 13.2031 6.04691C13.0547 5.80472 13.0391 5.61722 13.0156 4.34378L12.9844 2.91409L12.4688 3.20316C10.5391 4.25784 8.85938 6.02347 7.875 8.03909C7.45312 8.91409 7.0625 9.99222 7.0625 10.3047C7.0625 10.4375 6.99219 10.5 6.74219 10.5703C6.34375 10.6875 5.82812 11.1485 5.64844 11.5547C5.45312 11.9766 5.45312 12.7813 5.64844 13.1953C5.72656 13.3672 5.91406 13.6172 6.05469 13.7578C6.61719 14.2891 5.74219 14.25 18.0156 14.25C28.6797 14.25 29.1484 14.2422 29.4453 14.1016C29.8281 13.9219 30.2188 13.5235 30.375 13.1407C30.5469 12.7422 30.5312 11.9453 30.3516 11.5547C30.1719 11.1485 29.6562 10.6875 29.2578 10.5703C29.0078 10.5 28.9375 10.4375 28.9375 10.3047C28.9375 9.99222 28.5469 8.91409 28.125 8.03909C27.1406 6.02347 25.4609 4.25784 23.5312 3.20316L23.0156 2.91409L22.9844 4.34378C22.9609 5.61722 22.9453 5.80472 22.7969 6.04691C22.3047 6.88284 21.1953 6.88284 20.7031 6.04691C20.5469 5.78909 20.5391 5.60941 20.5 3.50784C20.4531 0.992218 20.4531 0.968781 19.9297 0.656281C19.7031 0.515656 19.5312 0.500031 18 0.500031C16.4688 0.500031 16.2969 0.515656 16.0703 0.656281Z"
        fill="url(#paint0_linear_165_1001)" />
    <path
        d="M9.27344 18.1328C9.29688 19.2109 9.34375 19.6562 9.46875 20.125C9.83594 21.4844 10.4531 22.6875 11.2812 23.6641L11.75 24.2109V25.3047V26.4062L14.875 27.7891L17.9922 29.1797L21.125 27.6094L24.25 26.0469V25.125V24.2109L24.7188 23.6641C26.0859 22.0547 26.75 20.1797 26.75 17.8984V16.75H17.9922H9.23438L9.27344 18.1328Z"
        fill="url(#paint1_linear_165_1001)" />
    <path
        d="M7.17969 28.3828C4.79688 29.2891 2.66406 30.8672 1.1875 32.8047C0.585938 33.6016 0.5 33.7812 0.5 34.25C0.5 34.7578 0.6875 35.1094 1.0625 35.3438C1.3125 35.4922 1.46875 35.5 4.66406 35.5H8V31.7891C8 29.75 7.99219 28.0781 7.98438 28.0781C7.96875 28.0781 7.60938 28.2188 7.17969 28.3828Z"
        fill="url(#paint2_linear_165_1001)" />
    <path
        d="M21.9062 29.875C18.9844 31.3438 18.2891 31.6641 18.0234 31.6641C17.75 31.6719 17 31.3672 14.1562 30.1016C12.2109 29.2344 10.5938 28.5156 10.5625 28.4922C10.5234 28.4766 10.5 30.0469 10.5 31.9766V35.5H18H25.5V31.7891C25.5 29.75 25.4922 28.0781 25.4844 28.0859C25.4688 28.0859 23.8594 28.8906 21.9062 29.875Z"
        fill="url(#paint3_linear_165_1001)" />
    <path
        d="M28 31.7891V35.5H31.3438C34.5312 35.5 34.6875 35.4922 34.9375 35.3438C35.3125 35.1094 35.5 34.7578 35.5 34.25C35.5 33.7812 35.4141 33.6016 34.8125 32.8047C33.3047 30.8203 30.9766 29.1406 28.5703 28.2812L28 28.0781V31.7891Z"
        fill="url(#paint4_linear_165_1001)" />
    <defs>
        <linearGradient id="paint0_linear_165_1001" x1="17.9987" y1="14.2507" x2="17.9987"
            y2="0.500031" gradientUnits="userSpaceOnUse">
            <stop stop-color="#9747FF" />
            <stop offset="1" stop-color="#7700B0" />
        </linearGradient>
        <linearGradient id="paint1_linear_165_1001" x1="17.9922" y1="29.1797" x2="17.9922"
            y2="16.75" gradientUnits="userSpaceOnUse">
            <stop stop-color="#9747FF" />
            <stop offset="1" stop-color="#7700B0" />
        </linearGradient>
        <linearGradient id="paint2_linear_165_1001" x1="4.25" y1="35.5" x2="4.25" y2="28.0781"
            gradientUnits="userSpaceOnUse">
            <stop stop-color="#9747FF" />
            <stop offset="1" stop-color="#7700B0" />
        </linearGradient>
        <linearGradient id="paint3_linear_165_1001" x1="18" y1="35.5" x2="18" y2="28.0859"
            gradientUnits="userSpaceOnUse">
            <stop stop-color="#9747FF" />
            <stop offset="1" stop-color="#7700B0" />
        </linearGradient>
        <linearGradient id="paint4_linear_165_1001" x1="31.75" y1="35.5" x2="31.75" y2="28.0781"
            gradientUnits="userSpaceOnUse">
            <stop stop-color="#9747FF" />
            <stop offset="1" stop-color="#7700B0" />
        </linearGradient>
    </defs>
</svg>
    