<svg width="32" height="38" viewBox="0 0 32 38" fill="none" xmlns="http://www.w3.org/2000/svg">
    <path
        d="M4.82819 0.406258C2.54694 0.992195 0.742255 2.89063 0.265692 5.19532C0.156317 5.71876 0.140692 7.14845 0.140692 17.6719C0.140692 30.6016 0.125067 30.1094 0.57038 31.2109C1.35944 33.1406 3.23444 34.6719 5.22663 35.0156C5.56257 35.0703 7.23444 35.0938 10.2891 35.0781L14.8516 35.0547L14.9532 34.5547C15.5079 31.8594 17.4532 29.3281 19.9454 28.0859C20.3282 27.8906 20.6641 27.7188 20.6798 27.7031C20.7032 27.6797 20.6329 27.6094 20.5235 27.5391C19.5313 26.8438 18.6016 25.4688 18.2501 24.1641C18.0391 23.3672 18.0235 22 18.2188 21.2266C18.7657 19.1172 20.2657 17.5 22.3282 16.8047C24.211 16.1719 26.3204 16.5547 27.9766 17.8203L28.5001 18.2266V12.0547C28.5001 5.39845 28.4923 5.31251 28.0782 4.20313C27.3829 2.35157 25.7423 0.91407 23.7813 0.406258C23.1798 0.250008 22.9454 0.250008 14.2891 0.25782C5.79694 0.25782 5.39069 0.265633 4.82819 0.406258ZM21.4376 6.62501C21.8204 6.8047 22.0391 7.15626 22.0782 7.62501C22.1094 8.07032 21.9376 8.41407 21.5235 8.71876C21.3048 8.88282 21.2579 8.88282 14.4923 8.90626C9.80475 8.92188 7.586 8.90626 7.39069 8.84376C6.57038 8.60938 6.25007 7.6172 6.78132 6.95313C7.1485 6.48438 6.80475 6.50001 14.3048 6.50001C20.4844 6.50001 21.1954 6.51563 21.4376 6.62501ZM21.4688 13.3047C21.8829 13.5391 22.1251 13.9922 22.0782 14.4609C22.0313 14.9219 21.836 15.2031 21.4219 15.4063C21.1173 15.5625 20.9688 15.5625 14.2891 15.5625H7.46882L7.15632 15.3906C6.32038 14.9141 6.30475 13.7891 7.14069 13.3203L7.44538 13.1406H14.3126C21.1563 13.1406 21.1719 13.1406 21.4688 13.3047ZM14.2891 19.9609C15.086 20.5 15.1094 21.4219 14.336 22C14.1173 22.1563 14.0157 22.1641 10.8985 22.1875C8.75007 22.2031 7.586 22.1875 7.39069 22.125C6.57038 21.8906 6.25007 20.8984 6.78132 20.2344C7.12507 19.7891 7.15632 19.7813 10.7344 19.7813H14.0235L14.2891 19.9609Z"
        fill="url(#paint0_linear_165_1024)" />
    <path
        d="M23.3047 18.375C21.2891 18.7812 19.875 20.5469 19.875 22.6719C19.875 23.875 20.2969 24.8828 21.1562 25.7344C22.8516 27.3984 25.5859 27.3984 27.2422 25.7266C28.1172 24.8516 28.5234 23.8594 28.5234 22.6328C28.5234 20.5859 27.1875 18.8828 25.2109 18.4141C24.6797 18.2891 23.8203 18.2734 23.3047 18.375Z"
        fill="url(#paint1_linear_165_1024)" />
    <path
        d="M22.6404 28.9922C20.6717 29.4141 18.9451 30.5859 17.8201 32.2656C17.0623 33.4062 16.6561 34.6172 16.5701 36C16.5311 36.7344 16.5389 36.8125 16.7107 37.1172C16.8123 37.2969 16.9998 37.5156 17.1404 37.5938C17.3748 37.7422 17.5779 37.75 24.2029 37.75C30.992 37.75 31.0232 37.75 31.2889 37.5859C31.4295 37.4922 31.6248 37.2734 31.7186 37.1016C31.867 36.8125 31.8748 36.6875 31.8357 35.9531C31.6951 33.375 30.1873 31.0234 27.8514 29.7422C26.3826 28.9297 24.3201 28.6406 22.6404 28.9922Z"
        fill="url(#paint2_linear_165_1024)" />
    <defs>
        <linearGradient id="paint0_linear_165_1024" x1="14.3203" y1="35.0829" x2="14.3203"
            y2="0.255226" gradientUnits="userSpaceOnUse">
            <stop stop-color="#9747FF" />
            <stop offset="1" stop-color="#7700B0" />
        </linearGradient>
        <linearGradient id="paint1_linear_165_1024" x1="24.1992" y1="26.9814" x2="24.1992"
            y2="18.3083" gradientUnits="userSpaceOnUse">
            <stop stop-color="#9747FF" />
            <stop offset="1" stop-color="#7700B0" />
        </linearGradient>
        <linearGradient id="paint2_linear_165_1024" x1="24.2033" y1="37.75" x2="24.2033" y2="28.845"
            gradientUnits="userSpaceOnUse">
            <stop stop-color="#9747FF" />
            <stop offset="1" stop-color="#7700B0" />
        </linearGradient>
    </defs>
</svg>
    