<svg width="24" height="24" viewBox="0 0 24 24" fill="none" xmlns="http://www.w3.org/2000/svg">
    <path
        d="M16.4906 20.1006C16.35 20.1006 16.2103 20.059 16.0905 19.9777L11.5646 16.9077L9.13713 18.6544C8.94675 18.7913 8.70136 18.8258 8.48029 18.7467C8.25951 18.6675 8.09184 18.4846 8.03198 18.2578L6.81313 13.6387L2.45801 11.9735C2.18384 11.8686 2.00201 11.6063 2.00002 11.3127C1.99802 11.0192 2.17624 10.7544 2.44908 10.6458L19.0088 4.05659C19.084 4.02466 19.1635 4.00623 19.2437 4.00129C19.2724 3.99958 19.3011 3.99958 19.3297 4.0012C19.4958 4.01108 19.6589 4.07872 19.7862 4.20355C19.7994 4.21647 19.812 4.22968 19.8238 4.24345C19.9293 4.36391 19.9872 4.51078 19.9982 4.66041C20.0008 4.69803 20.0006 4.73612 19.9973 4.77422C19.995 4.80139 19.9911 4.82846 19.9856 4.85535L17.1904 19.5214C17.1455 19.757 16.9851 19.9543 16.7636 20.0461C16.6757 20.0826 16.5829 20.1006 16.4906 20.1006ZM11.962 15.4553L15.9935 18.1899L18.1685 6.77807L10.3131 14.3369L11.943 15.4425C11.9495 15.4466 11.9558 15.451 11.962 15.4553ZM8.60588 14.8472L9.14568 16.8926L10.3087 16.0557L8.78581 15.0227C8.71504 14.9748 8.65443 14.9152 8.60588 14.8472ZM4.67295 11.2946L7.66338 12.4379C7.87761 12.5198 8.0393 12.6999 8.09782 12.9217L8.47706 14.3589C8.49445 14.1931 8.56959 14.0372 8.69167 13.9196L16.1767 6.71727L4.67295 11.2946Z"
        fill="white" />
</svg>
    