<svg width="24" height="24" viewBox="0 0 24 24" fill="none" xmlns="http://www.w3.org/2000/svg">
    <path
        d="M18.3401 5.61392C16.6476 3.92931 14.396 3.00096 11.9996 3C9.60859 3 7.3534 3.92752 5.6497 5.61172C3.94298 7.29881 3.0022 9.54085 3 11.9166V11.921C3.00027 13.359 3.37843 14.8096 4.09625 16.1337L3.02461 21L7.95163 19.8804C9.1995 20.5086 10.5918 20.8399 11.9962 20.8404H11.9997C14.3903 20.8404 16.6455 19.9128 18.3495 18.2284C20.0577 16.54 20.9989 14.3008 21 11.9235C21.0007 9.56296 20.0562 7.32216 18.3401 5.61392ZM11.9996 19.4355H11.9964C10.7355 19.435 9.48611 19.1187 8.38353 18.5207L8.15054 18.3943L4.87428 19.1388L5.58592 15.9077L5.44873 15.6714C4.76665 14.4962 4.40623 13.199 4.40623 11.9195C4.40884 7.77809 7.81486 4.40488 11.9993 4.40488C14.0208 4.4057 15.9203 5.18861 17.3477 6.60915C18.7966 8.05165 19.5943 9.93883 19.5936 11.9231C19.592 16.0655 16.1853 19.4355 11.9996 19.4355Z"
        fill="white" />
    <path
        d="M9.55072 7.98738H9.1562C9.01888 7.98738 8.79592 8.03874 8.60732 8.24377C8.41859 8.44894 7.88675 8.94484 7.88675 9.95338C7.88675 10.9619 8.6245 11.9364 8.72732 12.0733C8.83028 12.2101 10.1514 14.3459 12.2439 15.1675C13.9829 15.8503 14.3368 15.7145 14.7142 15.6803C15.0916 15.6462 15.9322 15.1845 16.1038 14.7059C16.2753 14.2273 16.2753 13.817 16.2239 13.7313C16.1724 13.6459 16.035 13.5947 15.8293 13.4922C15.6233 13.3896 14.6144 12.8854 14.4256 12.8168C14.2369 12.7486 14.0997 12.7144 13.9624 12.9197C13.8251 13.1246 13.4208 13.5986 13.3007 13.7354C13.1807 13.8723 13.0605 13.8895 12.8546 13.7869C12.6487 13.6841 11.9924 13.4638 11.206 12.7656C10.5939 12.2222 10.1692 11.5292 10.049 11.3241C9.92901 11.119 10.0362 11.0081 10.1395 10.9058C10.232 10.814 10.3569 10.6885 10.4599 10.5689C10.5627 10.4491 10.592 10.3637 10.6607 10.2269C10.7293 10.0902 10.6949 9.97041 10.6435 9.86797C10.592 9.76538 10.1969 8.75175 10.0138 8.34636C9.85959 8.00496 9.69739 7.99342 9.55072 7.98738Z"
        fill="white" />
</svg>
    