<svg width="25" height="24" viewBox="0 0 25 24" fill="none" xmlns="http://www.w3.org/2000/svg">
    <g clip-path="url(#clip0_202_6)">
        <path
            d="M15.5 18H0.5V4C0.5 3.20435 0.81607 2.44129 1.37868 1.87868C1.94129 1.31607 2.70435 1 3.5 1H12.5C13.2956 1 14.0587 1.31607 14.6213 1.87868C15.1839 2.44129 15.5 3.20435 15.5 4V18ZM17.5 18H24.5V13H17.5V18ZM19.5 5H17.5V11H24.5V10C24.4984 8.6744 23.9711 7.40356 23.0338 6.46622C22.0964 5.52888 20.8256 5.00159 19.5 5ZM3.558 20C3.52137 20.1642 3.50193 20.3318 3.5 20.5C3.5 21.163 3.76339 21.7989 4.23223 22.2678C4.70107 22.7366 5.33696 23 6 23C6.66304 23 7.29893 22.7366 7.76777 22.2678C8.23661 21.7989 8.5 21.163 8.5 20.5C8.49807 20.3318 8.47863 20.1642 8.442 20H3.558ZM17.558 20C17.5214 20.1642 17.5019 20.3318 17.5 20.5C17.5 21.163 17.7634 21.7989 18.2322 22.2678C18.7011 22.7366 19.337 23 20 23C20.663 23 21.2989 22.7366 21.7678 22.2678C22.2366 21.7989 22.5 21.163 22.5 20.5C22.4981 20.3318 22.4786 20.1642 22.442 20H17.558Z"
            fill="black" />
        <path
            d="M15.5 18H0.5V4C0.5 3.20435 0.81607 2.44129 1.37868 1.87868C1.94129 1.31607 2.70435 1 3.5 1H12.5C13.2956 1 14.0587 1.31607 14.6213 1.87868C15.1839 2.44129 15.5 3.20435 15.5 4V18ZM17.5 18H24.5V13H17.5V18ZM19.5 5H17.5V11H24.5V10C24.4984 8.6744 23.9711 7.40356 23.0338 6.46622C22.0964 5.52888 20.8256 5.00159 19.5 5ZM3.558 20C3.52137 20.1642 3.50193 20.3318 3.5 20.5C3.5 21.163 3.76339 21.7989 4.23223 22.2678C4.70107 22.7366 5.33696 23 6 23C6.66304 23 7.29893 22.7366 7.76777 22.2678C8.23661 21.7989 8.5 21.163 8.5 20.5C8.49807 20.3318 8.47863 20.1642 8.442 20H3.558ZM17.558 20C17.5214 20.1642 17.5019 20.3318 17.5 20.5C17.5 21.163 17.7634 21.7989 18.2322 22.2678C18.7011 22.7366 19.337 23 20 23C20.663 23 21.2989 22.7366 21.7678 22.2678C22.2366 21.7989 22.5 21.163 22.5 20.5C22.4981 20.3318 22.4786 20.1642 22.442 20H17.558Z"
            fill="url(#paint0_linear_202_6)" />
    </g>
    <defs>
        <linearGradient id="paint0_linear_202_6" x1="12.5" y1="1" x2="12.5" y2="23"
            gradientUnits="userSpaceOnUse">
            <stop stop-color="#9747FF" />
            <stop offset="1" stop-color="#7700B0" />
        </linearGradient>
        <clipPath id="clip0_202_6">
            <rect width="24" height="24" fill="white" transform="translate(0.5)" />
        </clipPath>
    </defs>
</svg>
    